# xmcd CD database file
#
# Track frame offsets:
#	150
#	41407
#	94560
#	133982
#	200880
#	225177
#
# Disc length: 3782 seconds
#
# Revision: 0
# Processed by: cddbd v1.4PL0 Copyright (c) Steve Scherf et al.
# Submitted via: CDex 1.50beta10
#
DISCID=490ec406
DTITLE=Juhani Aaltonen Trio - Mother Tongue
DYEAR=2003
DGENRE=Jazz
TTITLE0=Lullaby
TTITLE1=Hymn
TTITLE2=Tuuliviiri
TTITLE3=Reflections
TTITLE4=Nature Boy
TTITLE5=Tribute
EXTD=YEAR: 2003
EXTT0=
EXTT1=
EXTT2=
EXTT3=
EXTT4=
EXTT5=
PLAYORDER=
